<?xml version="1.0" encoding="utf-8"?>
<!-- Generator: Adobe Illustrator 23.0.4, SVG Export Plug-In . SVG Version: 6.00 Build 0)  -->
<svg version="1.1" id="Layer_1" xmlns="http://www.w3.org/2000/svg" xmlns:xlink="http://www.w3.org/1999/xlink" x="0px" y="0px"
	 viewBox="0 0 2500 2500" style="enable-background:new 0 0 2500 2500;" xml:space="preserve">
<style type="text/css">
	.st0{fill:#fff;}
</style>
<path class="st0" d="M1250,0c690.4,0,1250,559.6,1250,1250s-559.6,1250-1250,1250S0,1940.4,0,1250S559.6,0,1250,0z M1656.4,383.7
	h-276.9c-164.3,0-347.1,69.1-347.1,307.3c0.8,83,0,162.5,0,251.9H842.3v302.5h196v870.9h360.1v-876.6h237.7l21.5-297.6h-265.4
	c0,0,0.6-132.4,0-170.8c0-94.1,97.9-88.7,103.8-88.7c46.6,0,137.2,0.1,160.5,0V383.7H1656.4z"/>
</svg>
